PathFileType	4	(X/Y/Z)	Patient4_TMGait_0pt4_01_right_40.trc.trc
DataRate	CameraRate	NumFrames	NumMarkers	Units	OrigDataRate	OrigDataStartFrame	OrigNumFrames
77.777777777778	77.777777777778	6	33	mm	77.777777777778	124	       141
Frame#	Time	Sacral			L.Shoulder			Chest			R.Shoulder			Neck			R.ASIS			L.ASIS			R.Thigh.Superior			R.Thigh.Lateral			R.Thigh.Inferior			R.Patella			L.Thigh.Superior			L.Thigh.Lateral			L.Thigh.Inferior			L.Patella			L.Shank.Superior			L.Shank.Lateral			L.Shank.Inferior			R.Shank.Superior			R.Shank.Lateral			R.Shank.Inferior			R.Heel			R.Midfoot.Superior			R.Midfoot.Lateral			R.Toe			L.Heel			L.Midfoot.Lateral			L.Midfoot.Superior			L.Toe			L.Elbow			L.Wrist			R.Elbow			R.Wrist			
		X1	Y1	Z1	X2	Y2	Z2	X3	Y3	Z3	X4	Y4	Z4	X5	Y5	Z5	X6	Y6	Z6	X7	Y7	Z7	X8	Y8	Z8	X9	Y9	Z9	X10	Y10	Z10	X11	Y11	Z11	X12	Y12	Z12	X13	Y13	Z13	X14	Y14	Z14	X15	Y15	Z15	X16	Y16	Z16	X17	Y17	Z17	X18	Y18	Z18	X19	Y19	Z19	X20	Y20	Z20	X21	Y21	Z21	X22	Y22	Z22	X23	Y23	Z23	X24	Y24	Z24	X25	Y25	Z25	X26	Y26	Z26	X27	Y27	Z27	X28	Y28	Z28	X29	Y29	Z29	X30	Y30	Z30	X31	Y31	Z31	X32	Y32	Z32	X33	Y33	Z33	

124	53.781428571429	847.182099936442	1001.787950376350	456.247277915007	1052.909095173925	1424.338446232433	283.398487830647	1133.850624538043	1359.526544104369	456.977041984035	1030.310718176787	1437.033814943088	617.668470208470	1012.051380680347	1488.806432320883	435.967695717983	1065.321577902395	937.925393460225	594.398086915974	1073.422287454079	954.178436813531	318.651232895254	1134.157641612759	753.870892053203	566.277811374206	1072.493957076068	633.807432747741	629.940993682523	1162.284027357128	594.764278989793	553.623156433020	1181.886424866272	508.945434754516	563.958661604785	1076.820746638546	726.194422051744	343.886195889989	965.783250662700	631.945183854116	271.377225845192	1025.513045083834	537.818810596644	335.562232790098	1011.332864608356	469.972887548260	340.773238165506	975.314733451675	404.188171163387	329.341159771568	869.987589721477	305.564393985835	274.375266433879	903.479272470971	185.409242129247	340.927366631178	1161.108587198018	417.774197301090	574.508248267331	1097.855349990442	308.765743455171	637.033999545782	1156.776574079515	217.565907609517	582.091832956936	1046.390914333915	42.124293393275	554.591686297715	1211.688634979593	104.834640815721	596.468440812381	1129.895291174592	38.233119196119	629.124278064512	1335.393515733140	60.002497032207	619.254945813074	762.393496838975	38.030061962637	381.763436219105	831.837522161751	34.241744429667	297.383387794287	916.968878072925	95.218445188023	321.532880265265	1043.848261124760	42.193758840622	284.849273968443	1120.391230139366	1093.363882188463	142.788717450933	1363.761595166266	1012.549854746759	182.925679087470	906.299889961089	1112.495362497191	726.740514569744	898.127434575174	852.096699856589	740.654380158780	
125	53.794285714286	850.134082516865	1000.186950110614	459.607920523661	1053.109162497223	1423.451562452498	286.432902147523	1134.906992197664	1359.406938667188	459.913930677827	1031.174602954989	1436.219289700093	620.857888961334	1012.484058215259	1487.922005696133	439.068214959490	1068.881098998881	936.903068296520	597.212817856576	1076.390458872688	953.435402765734	321.693390583793	1137.254627564973	751.669167062911	568.989328735839	1073.775061780004	632.229932610968	631.290153977981	1163.376257693832	592.759559985996	555.010007239759	1181.306815113836	506.492989255202	564.717104469397	1080.172229259506	724.981832426590	346.470641500154	969.025028881639	630.515026691693	274.161024284497	1029.326107428271	536.178524670768	337.747022071634	1015.285916895264	467.325514140606	342.401755657714	977.185164499200	402.177553129099	331.017515056904	869.440060350167	306.051431936371	275.888433407008	900.518626470967	184.840345963842	341.562730991679	1160.111122034565	415.218060353558	574.978172258502	1095.998384403441	306.539007291182	637.160911999059	1153.535636098608	215.042025743113	581.463905125069	1040.653997193916	41.881661881014	553.372359418868	1206.180302191647	102.275098260182	596.281411261576	1123.801245642637	37.469048876138	628.300701297275	1329.974002700533	55.607709675567	618.572935406632	757.230796442589	39.004949045302	381.592578843346	826.779377587031	34.698172343498	297.391802583404	912.313958888564	95.333355473348	321.490795036277	1038.843237729880	41.705537904048	284.768513267628	1121.388062000074	1091.786502312474	147.045031668198	1364.711692865886	1010.513485141688	187.468505032586	909.003555855256	1111.038013705517	729.913802194335	902.143858918109	850.473098712042	743.608242531259	
126	53.807142857143	852.946691297294	998.812432136570	463.014850818352	1053.306532967606	1422.787311263754	289.503856825689	1135.976934044220	1359.457915521125	462.872959612847	1032.095911319386	1435.572996792562	624.098524354090	1012.952786762342	1487.251395545988	442.223799707665	1072.346403967768	936.207112034300	600.064438256427	1079.210442344279	952.854783208942	324.787537447132	1140.319736982682	749.932398928758	571.618069769100	1075.514850330611	631.207314255591	632.926296916821	1164.666242076499	591.227743803687	556.440359755524	1181.200863050512	504.488723717152	565.730501119963	1083.985048648133	724.038557898859	349.101126559873	973.026655295222	629.048341132549	277.081908768180	1034.333446043003	534.620747961740	339.924497868510	1020.545012405327	464.609710588054	343.962283250025	980.102350514137	400.171007402028	332.681599315865	869.731102262678	306.914669329310	277.464442016396	898.109548392829	184.607873839605	342.155119778023	1159.435407717064	413.113602604396	575.627122880247	1094.523057624240	304.873819916558	637.720168447955	1150.317617802992	212.960546188804	581.111466194282	1034.687073046543	41.893890127277	552.714764109991	1200.566507012462	100.314257332191	596.122807742268	1117.643686628187	37.021368013231	627.875996298756	1324.415915452706	51.938805333532	617.981299577528	752.213516736625	40.818848306191	381.357598824894	821.841897771797	35.624816365210	297.379071919361	907.989845550354	95.593467031454	321.368662855051	1033.903330649571	41.126201046313	284.673636257473	1121.860380794171	1090.183012558239	151.495093089244	1364.980855952302	1007.596079886983	191.879474771036	912.495330805808	1109.390362153895	733.136877919277	907.453655665292	848.646398526537	746.780389958286	
127	53.820000000000	855.578845527871	997.721300484816	466.441280336489	1053.526227487311	1422.381635664396	292.581052272369	1137.051858231796	1359.684639539481	465.823806680840	1033.084584032854	1435.145608700960	627.343635529961	1013.468995451293	1486.832788506159	445.390158432298	1075.637932791331	935.867932198065	602.966315512501	1081.812049967063	952.473709416608	327.917153122344	1143.231365189578	748.702759115897	574.170551886986	1077.575582645722	630.690870744138	634.852999739600	1166.056300246580	590.144959014226	557.968360776826	1181.444678771633	502.935891431370	567.023622902354	1088.197862692601	723.446212633156	351.756907838311	977.771514188447	627.627261287035	280.068899239072	1040.525708921365	533.241138806821	342.020098307451	1027.084160661329	461.950601623925	345.370293348766	984.091186654663	398.271027039824	334.254457043863	870.923934506866	308.260906943382	279.040742562893	896.341974145118	184.840234155457	342.645606872167	1158.999908512224	411.468368345021	576.468656784445	1093.365463462696	303.733074348631	638.648176726430	1147.191819052598	211.338811349981	581.027851104962	1028.758015689018	42.064865753342	552.518684731366	1195.113954326222	98.967576460340	595.856277735485	1111.654198404285	36.825583833753	627.786338949369	1318.917601390781	49.109892978002	617.549379751020	747.430340377356	43.702441778993	381.055382496836	817.077144251273	37.173659371640	297.333656188516	904.083925259031	96.054739183522	321.140481052295	1029.033655176038	40.476571592643	284.572179335990	1121.807181267524	1088.615643225933	156.115530013657	1364.532541125377	1003.804390375184	196.112675015394	916.731984564629	1107.655904710156	736.402596838646	914.064118779541	846.735775223305	750.141035486701	
128	53.832857142857	858.007203340596	996.936849872815	469.881963522039	1053.766570920646	1422.243400703359	295.635842139487	1138.111232432441	1360.081376622534	468.735250600820	1034.137930882444	1434.968728645482	630.549930608186	1014.027465641851	1486.680199543063	448.526455762888	1078.706024642359	935.884098523133	605.930185339320	1084.140981960074	952.313300598971	331.067574416420	1145.902874369307	747.958539686683	576.674326302848	1079.753906224959	630.571128849159	637.028418497610	1167.426075031122	589.428959251678	559.639729662580	1181.861917522542	501.777776531242	568.572128493193	1092.741384833352	723.269685899733	354.419270592028	983.233245511673	626.331935208647	283.045856599918	1047.857213573573	532.134257587469	343.970784049447	1034.839919235401	459.479147335670	346.556940846827	989.155464770708	396.576703305590	335.667815536194	873.069777167731	310.179529573822	280.560008588634	895.299310717701	185.649255221631	342.983939631811	1158.667780709998	410.235261393816	577.483363279829	1092.380671904490	303.031397255894	639.833589317552	1144.153798389405	210.141619110601	581.173046339063	1023.020628359035	42.316445413230	552.658321960572	1189.971145706898	98.162286727664	595.384106471290	1105.945301583689	36.810964669511	627.944647413721	1313.580392658267	47.100849104040	617.307485350009	742.989158381282	47.856300588524	380.689324826634	812.549610419705	39.493436765831	297.246960220451	900.680782556998	96.776989953968	320.789308517975	1024.238625481110	39.785955521201	284.475921617244	1121.238125746299	1087.134864476391	160.879310663517	1363.323764958810	999.147079756954	200.123290260438	921.644453316343	1105.936204420387	739.716155902734	921.987101550806	844.867006865000	753.653627804757	
129	53.845714285714	860.221829463374	996.449078763655	473.348612481418	1053.996781807140	1422.353229989567	298.643961531146	1139.124707666499	1360.633593987931	471.577544128276	1035.242184879806	1435.051055318477	633.683111714654	1014.609307452653	1486.782841016607	451.600786546074	1081.530410215293	936.224099426236	608.957194425175	1086.162187479475	952.375729579641	334.224834505178	1148.278498431800	747.617214638510	579.177572567954	1081.804376067411	630.704956477965	639.377354956255	1168.639989287535	588.965631685688	561.480866263391	1182.252756267668	500.922657945438	570.306537504047	1097.547344402783	723.549690877046	357.072342211550	989.379832833590	625.231166207482	285.941575166827	1056.247570494493	531.384736003385	345.741038276154	1043.717301081524	457.319588076585	347.489389553349	995.276992166960	395.174964920142	336.879829359625	876.206411898232	312.731949107563	281.980765175110	895.053451735671	187.119374916009	343.140334586496	1158.276138792815	409.334895616199	578.626889466492	1091.386727471788	302.658700684762	641.147193623689	1141.150378387674	209.300005847141	581.486907702930	1017.532271202359	42.591316982667	553.005469959119	1185.170186343808	97.767613497454	594.688156965263	1100.535390610736	36.910535029788	628.257923759365	1308.429490220125	45.796143001830	617.251046986460	739.013281878098	53.429186487126	380.269104793720	808.337545122446	42.718863064005	297.115257537118	897.857326230118	97.821250323176	320.313658941367	1019.524460265984	39.085390801271	284.400089455291	1120.172115537466	1085.771666248780	165.755947217406	1361.302855844966	993.635028522374	203.868849766223	927.146394832439	1104.320574628086	743.096325739456	931.235965877179	843.165693331494	757.278545096839	
